<svg width="233" height="232" viewBox="0 0 233 232" fill="none" xmlns="http://www.w3.org/2000/svg">
<g opacity="0.08">
<path opacity="0.08" d="M6.52479 126.841C6.52479 126.841 13.8117 166.113 50.7708 187.395C87.7236 208.676 133.662 203.599 171.002 200.465C208.342 197.33 233.537 172.077 232.993 139.798C232.45 107.52 202.797 102.543 181.985 68.8718C161.173 35.2071 160.736 23.1612 124.939 5.96352C89.141 -11.2279 40.5054 10.1037 19.6937 52.0925C-1.11179 94.0813 6.52479 126.841 6.52479 126.841Z" fill="#00B533"/>
<path opacity="0.7" d="M6.52479 126.841C6.52479 126.841 13.8117 166.113 50.7708 187.395C87.7236 208.676 133.662 203.599 171.002 200.465C208.342 197.33 233.537 172.077 232.993 139.798C232.45 107.52 202.797 102.543 181.985 68.8718C161.173 35.2071 160.736 23.1612 124.939 5.96352C89.141 -11.2279 40.5054 10.1037 19.6937 52.0925C-1.11179 94.0813 6.52479 126.841 6.52479 126.841Z" fill="#00B533"/>
</g>
<path d="M227.025 100.507L208.648 100.663C208.648 100.663 207.399 100.507 207.131 101.419C207.131 101.419 203.94 109.474 203.79 112.359C203.64 115.244 204.415 114.788 203.166 118.604C201.917 122.419 198.458 131.362 196.485 138.655C193.831 148.453 193.138 158.857 192.969 168.973C192.969 170.597 191.97 184.585 194.499 184.585C196.597 184.585 215.935 187.151 216.166 183.423C217.096 168.561 214.411 154.042 219.569 139.592C221.573 133.972 223.871 128.052 225.576 122.182C227.281 116.312 227.574 110.205 228.698 104.198C229.454 100.051 227.025 100.507 227.025 100.507Z" fill="#00B533" stroke="#2E353A" stroke-linecap="round" stroke-linejoin="round"/>
<path d="M189.066 220.435L188.941 220.335V203.175H191.408V192.328H182.291V203.175H184.752V220.628L162.935 227.585V229.309C162.935 230.401 163.815 231.282 164.908 231.282C166 231.282 166.881 230.401 166.881 229.309V229.065L185.126 226.942V229.558C185.126 230.507 185.901 231.282 186.856 231.276C187.805 231.276 188.573 230.507 188.573 229.558V226.854L207.555 229.065V229.309C207.555 230.401 208.436 231.282 209.528 231.282C210.621 231.282 211.501 230.401 211.501 229.309V227.585L189.066 220.435Z" fill="#00B533"/>
<path d="M160.899 181.75H215.079C216.459 181.75 217.577 182.867 217.577 184.247V191.835C217.577 193.215 216.459 194.332 215.079 194.332H160.899C159.519 194.332 158.401 193.215 158.401 191.835V184.247C158.401 182.867 159.519 181.75 160.899 181.75Z" fill="#00B533" stroke="#2E353A" stroke-linecap="round" stroke-linejoin="round"/>
<path d="M1.80453 100.507L20.181 100.663C20.181 100.663 21.4299 100.507 21.7046 101.419C21.7046 101.419 24.8954 109.474 25.0452 112.359C25.1951 115.244 24.4208 114.788 25.6696 118.604C26.9185 122.419 30.3777 131.362 32.3509 138.655C35.0109 148.453 35.6977 158.857 35.8663 168.973C35.8663 170.597 36.8654 184.585 34.3365 184.585C32.2447 184.585 12.9066 187.151 12.6693 183.423C11.7452 168.561 14.4239 154.042 9.26628 139.592C7.26191 133.972 4.96406 128.052 3.26566 122.182C1.56725 116.312 1.26754 110.205 0.14359 104.198C-0.593218 100.051 1.80453 100.507 1.80453 100.507Z" fill="#2E353A"/>
<path d="M39.7625 220.435L39.8874 220.335V203.175H37.3897V192.328H46.5124V203.175H44.046V220.628L65.863 227.585V229.308C65.863 230.401 64.9826 231.282 63.8899 231.282C62.7971 231.282 61.9167 230.401 61.9167 229.308V229.065L43.74 226.942V229.558C43.6838 230.514 42.8659 231.238 41.9105 231.182C41.0363 231.132 40.3432 230.433 40.287 229.558V226.854L21.2611 229.065V229.308C21.3236 230.395 20.4931 231.326 19.4004 231.388C18.3139 231.45 17.3835 230.62 17.3211 229.527C17.3148 229.452 17.3148 229.377 17.3211 229.302V227.579L39.7625 220.435Z" fill="#2E353A"/>
<path d="M67.93 194.326H13.7496C12.3697 194.326 11.252 193.208 11.252 191.828V184.241C11.252 182.861 12.3697 181.743 13.7496 181.743H67.93C69.3099 181.743 70.4276 182.861 70.4276 184.241V191.828C70.4276 193.208 69.3037 194.326 67.93 194.326Z" fill="#2E353A"/>
<path d="M204.215 146.411H55.854V231.688H204.215V146.411Z" fill="#CACACA"/>
<path d="M204.102 148.459H55.9287V150.82H204.102V148.459Z" fill="#2E353A"/>
<path d="M205.314 145.012H52.5508V148.741H205.314V145.012Z" fill="#CACACA"/>
<path d="M95.354 137.606C95.354 137.606 97.1023 145.418 97.0024 147.598C96.9025 149.777 92.7876 155.616 92.6815 154.279C92.7189 153.149 92.9624 152.031 93.4058 150.988C93.4058 150.988 91.9634 152.943 91.4514 152.862C90.9394 152.781 91.8635 150.083 91.8635 150.083C91.8635 150.083 90.3212 151.625 89.8029 151.332C89.2847 151.038 90.9331 148.759 90.9331 148.759C90.9331 148.759 89.0599 150.714 88.9849 150.095C88.91 149.477 90.6271 146.911 90.6271 146.911C90.6271 146.911 88.8788 143.208 88.7539 141.665C88.7664 140.585 89.1223 139.542 89.7779 138.687L95.354 137.606Z" fill="white"/>
<path d="M95.354 137.606C95.354 137.606 97.1023 145.418 97.0024 147.598C96.9025 149.777 92.7876 155.616 92.6815 154.279C92.7189 153.149 92.9624 152.031 93.4058 150.988C93.4058 150.988 91.9634 152.943 91.4514 152.862C90.9394 152.781 91.8635 150.083 91.8635 150.083C91.8635 150.083 90.3212 151.625 89.8029 151.332C89.2847 151.038 90.9331 148.759 90.9331 148.759C90.9331 148.759 89.0599 150.714 88.9849 150.095C88.91 149.477 90.6271 146.911 90.6271 146.911C90.6271 146.911 88.8788 143.208 88.7539 141.665C88.7664 140.585 89.1223 139.542 89.7779 138.687L95.354 137.606Z" fill="#D7D7D7"/>
<path d="M95.354 137.606C95.354 137.606 97.1023 145.418 97.0024 147.598C96.9025 149.777 92.7876 155.616 92.6815 154.279C92.7189 153.149 92.9624 152.031 93.4058 150.988C93.4058 150.988 91.9634 152.943 91.4514 152.862C90.9394 152.781 91.8635 150.083 91.8635 150.083C91.8635 150.083 90.3212 151.625 89.8029 151.332C89.2847 151.038 90.9331 148.759 90.9331 148.759C90.9331 148.759 89.0599 150.714 88.9849 150.095C88.91 149.477 90.6271 146.911 90.6271 146.911C90.6271 146.911 88.8788 143.208 88.7539 141.665C88.7664 140.585 89.1223 139.542 89.7779 138.687L95.354 137.606Z" stroke="#2E353A" stroke-linecap="round" stroke-linejoin="round"/>
<path d="M94.9422 137.606C94.9422 137.606 96.1911 143.058 96.0787 144.6C95.9663 146.143 94.4302 150.664 93.3 149.839C92.1698 149.015 94.0181 145.937 94.0181 145.937C94.0181 145.937 90.8461 143.707 90.1155 141.615C89.385 139.523 89.8033 138.637 89.8033 138.637L94.9422 137.606Z" fill="white"/>
<path d="M94.9422 137.606C94.9422 137.606 96.1911 143.058 96.0787 144.6C95.9663 146.143 94.4302 150.664 93.3 149.839C92.1698 149.015 94.0181 145.937 94.0181 145.937C94.0181 145.937 90.8461 143.707 90.1155 141.615C89.385 139.523 89.8033 138.637 89.8033 138.637L94.9422 137.606Z" fill="#D7D7D7"/>
<path d="M94.9422 137.606C94.9422 137.606 96.1911 143.058 96.0787 144.6C95.9663 146.143 94.4302 150.664 93.3 149.839C92.1698 149.015 94.0181 145.937 94.0181 145.937C94.0181 145.937 90.8461 143.707 90.1155 141.615C89.385 139.523 89.8033 138.637 89.8033 138.637L94.9422 137.606Z" stroke="#2E353A" stroke-linecap="round" stroke-linejoin="round"/>
<path d="M91.1766 112.059L95.5537 138.131L89.3845 139.523L83.2153 119.422L91.1766 112.059Z" fill="#2E353A" stroke="#2E353A" stroke-linecap="round" stroke-linejoin="round"/>
<path d="M89.3848 124.798C89.3848 124.798 89.7844 155.847 90.3776 164.208C90.9708 172.57 88.7854 183.716 86.7997 186.901C84.8141 190.086 76.0473 210.006 76.4469 211.186C76.8466 212.367 78.6386 215.964 78.6386 216.957V221.134C78.6386 221.134 88.5855 227.704 89.3848 227.704C90.184 227.704 91.1769 229.296 89.185 230.495C87.1931 231.694 64.9015 231.688 63.9087 230.888C63.2531 230.301 62.7723 229.546 62.5163 228.703C62.5163 228.703 59.3318 229.895 59.5316 226.91C59.7314 223.926 63.3093 211.186 63.3093 211.186C63.3093 211.186 61.1238 197.248 61.9168 188.294C62.7098 179.339 65.501 168.586 65.501 166.4C65.501 164.214 62.7161 149.677 62.3165 147.292C61.9168 144.906 56.1473 138.131 58.7323 132.76C61.3174 127.39 63.3093 118.822 64.1085 118.229C64.9078 117.636 75.6539 117.23 80.0311 118.229C84.4082 119.228 89.185 119.222 89.3848 124.798Z" fill="#2E353A" stroke="#2E353A" stroke-linecap="round" stroke-linejoin="round"/>
<path d="M69.6537 62.2149C69.6537 62.2149 66.2506 65.2623 65.6637 66.3177C65.0768 67.373 57.9335 77.558 57.8148 84.8392C57.6962 92.1204 63.0974 114.139 63.0974 114.139L54.98 134.79L57.3278 135.727L59.6693 133.148V137.019C59.6693 137.019 62.3668 139.48 69.3977 141.821C76.4286 144.163 85.4576 141.472 85.4576 141.472L88.1488 124.336V141.241L91.3146 139.13L91.5706 110.979C91.5706 110.979 94.1495 95.8609 94.1495 91.6209C94.1495 87.3808 86.9999 74.1359 83.8341 70.2892C80.6684 66.4426 75.3921 63.2578 73.8435 62.0838C72.295 60.9098 69.6537 62.2149 69.6537 62.2149Z" fill="#2E353A"/>
<path d="M69.6537 62.2149C69.6537 62.2149 66.2506 65.2623 65.6637 66.3177C65.0768 67.373 57.9335 77.558 57.8148 84.8392C57.6962 92.1204 63.0974 114.139 63.0974 114.139L54.98 134.79L57.3278 135.727L59.6693 133.148V137.019C59.6693 137.019 62.3668 139.48 69.3977 141.821C76.4286 144.163 85.4576 141.472 85.4576 141.472L88.1488 124.336V141.241L91.3146 139.13L91.5706 110.979C91.5706 110.979 94.1495 95.8609 94.1495 91.6209C94.1495 87.3808 86.9999 74.1359 83.8341 70.2892C80.6684 66.4426 75.3921 63.2578 73.8435 62.0838C72.295 60.9098 69.6537 62.2149 69.6537 62.2149Z" stroke="#2E353A" stroke-linecap="round" stroke-linejoin="round"/>
<path d="M68.9478 62.8958L81.9605 76.9649L89.5784 91.5023C89.5784 91.5023 87.9362 80.7179 86.5313 77.7642C85.1263 74.8105 78.7948 67.4918 78.0829 65.8495C77.3711 64.2071 68.9478 62.8958 68.9478 62.8958Z" fill="white" stroke="#2E353A" stroke-linecap="round" stroke-linejoin="round"/>
<path d="M85.9754 84.6455L89.5783 91.5146C89.5783 91.5146 88.4606 84.1647 87.2742 79.9495L86.5311 77.7951C85.5321 76.0467 84.4019 74.3731 83.1468 72.7995L81.105 72.3936L81.9604 76.9896L84.5955 79.144L85.9754 84.6455Z" fill="#2E353A" stroke="#2E353A" stroke-linecap="round" stroke-linejoin="round"/>
<path d="M82.5039 68.1973L83.1782 68.9778L85.295 71.4757L86.5438 77.8202L81.1177 72.4061C81.1177 72.4061 81.8295 69.1402 82.5039 68.1973Z" fill="white" stroke="#2E353A" stroke-linecap="round" stroke-linejoin="round"/>
<path d="M88.6417 42.0512C88.6417 42.0512 91.489 44.2368 91.8449 46.3475C92.2009 48.4582 91.1394 50.8062 91.258 51.6242C91.3766 52.4423 93.4809 54.3219 93.3685 55.2586C93.2561 56.1953 91.4953 56.545 91.4953 56.545C91.4953 56.545 89.5846 63.5015 89.1163 64.663C88.6479 65.8245 86.3001 65.481 84.5455 65.25L81.3798 74.6169L70.9396 62.3337L72.5818 57.4067C72.5818 57.4067 68.1297 52.0176 67.7738 46.2726C67.4179 40.5275 71.9948 36.5435 78.5574 35.7254C85.12 34.9074 90.6336 38.0672 91.3329 39.3598C92.0323 40.6524 88.6417 42.0512 88.6417 42.0512Z" fill="white"/>
<path d="M88.6417 42.0512C88.6417 42.0512 91.489 44.2368 91.8449 46.3475C92.2009 48.4582 91.1394 50.8062 91.258 51.6242C91.3766 52.4423 93.4809 54.3219 93.3685 55.2586C93.2561 56.1953 91.4953 56.545 91.4953 56.545C91.4953 56.545 89.5846 63.5015 89.1163 64.663C88.6479 65.8245 86.3001 65.481 84.5455 65.25L81.3798 74.6169L70.9396 62.3337L72.5818 57.4067C72.5818 57.4067 68.1297 52.0176 67.7738 46.2726C67.4179 40.5275 71.9948 36.5435 78.5574 35.7254C85.12 34.9074 90.6336 38.0672 91.3329 39.3598C92.0323 40.6524 88.6417 42.0512 88.6417 42.0512Z" stroke="#2E353A" stroke-linecap="round" stroke-linejoin="round"/>
<path d="M88.6421 42.0512C88.6421 42.0512 92.0389 40.6462 91.3333 39.3598C90.6277 38.0734 85.1204 34.9011 78.5578 35.7254C71.9952 36.5497 67.4245 40.5275 67.7741 46.2726C68.1238 52.0176 72.5821 57.4067 72.5821 57.4067L72.3324 58.1561C74.7613 59.3425 77.2715 57.4067 77.2715 57.4067C76.3286 57.8813 75.1922 57.694 74.4554 56.9384C73.0504 55.652 72.9318 51.5493 74.6926 51.1933C76.4535 50.8374 77.6211 51.5493 77.6211 52.8357C77.6211 54.122 77.9708 53.304 78.9137 53.1854C79.8565 53.0667 79.0261 50.2566 79.613 49.7883C80.5621 49.2013 81.3926 48.4457 82.0732 47.559C83.1285 46.1539 80.0813 44.9862 79.7317 43.6935C79.382 42.4009 88.6421 42.0512 88.6421 42.0512Z" fill="#2E353A" stroke="#2E353A" stroke-linecap="round" stroke-linejoin="round"/>
<path d="M89.4786 51.2058L87.3057 51.9302H89.2726" stroke="#2E353A" stroke-linecap="round" stroke-linejoin="round"/>
<path d="M90.3089 49.0326C90.3089 49.0326 89.3785 47.69 88.342 48.3082C87.3055 48.9264 87.2056 49.3448 87.2056 49.3448" stroke="#2E353A" stroke-linecap="round" stroke-linejoin="round"/>
<path d="M88.0737 58.4495C88.7106 58.8866 89.4849 59.0614 90.2467 58.949" stroke="#2E353A" stroke-linecap="round" stroke-linejoin="round"/>
<path d="M70.4714 60.1045L83.5966 72.9996L82.4289 78.5074L68.4795 63.5016L70.4714 60.1045Z" fill="white" stroke="#2E353A" stroke-linecap="round" stroke-linejoin="round"/>
<path d="M120.893 109.406C120.893 109.406 116.272 106.658 115.523 106.908C114.774 107.157 107.531 112.403 108.03 113.652C108.53 114.901 112.401 116.524 114.649 117.399C116.897 118.273 121.517 116.399 121.517 116.399L120.893 109.406Z" fill="white" stroke="#2E353A" stroke-linecap="round" stroke-linejoin="round"/>
<path d="M107.43 108.407C107.43 108.407 111.427 106.158 112.051 106.158C112.675 106.158 116.297 109.406 116.297 109.406L114.798 111.654C114.798 111.654 119.544 114.027 119.044 114.901C118.545 115.775 116.672 117.149 114.674 117.399C112.675 117.649 107.056 114.027 107.056 114.027L107.43 108.407Z" fill="white"/>
<path d="M107.43 108.407C107.43 108.407 111.427 106.158 112.051 106.158C112.675 106.158 116.297 109.406 116.297 109.406L114.798 111.654C114.798 111.654 119.544 114.027 119.044 114.901C118.545 115.775 116.672 117.149 114.674 117.399C112.675 117.649 107.056 114.027 107.056 114.027L107.43 108.407Z" stroke="#2E353A" stroke-linecap="round" stroke-linejoin="round"/>
<path d="M104.658 107.407L108.155 108.032L107.031 114.027L104.034 113.027L104.658 107.407Z" fill="white" stroke="#2E353A" stroke-linecap="round" stroke-linejoin="round"/>
<path d="M64.0772 72.5623C64.0772 72.5623 60.7054 79.0567 60.3308 82.3039C59.9561 85.5511 73.6932 111.404 74.6923 112.278C75.6913 113.152 104.908 114.027 104.908 114.027L106.156 107.657L81.1799 100.538L72.6879 74.4356" fill="#2E353A"/>
<path d="M64.0772 72.5623C64.0772 72.5623 60.7054 79.0567 60.3308 82.3039C59.9561 85.5511 73.6932 111.404 74.6923 112.278C75.6913 113.152 104.908 114.027 104.908 114.027L106.156 107.657L81.1799 100.538L72.6879 74.4356" stroke="#2E353A" stroke-linecap="round" stroke-linejoin="round"/>
<path d="M116.522 107.532C116.522 107.532 114.774 106.033 114.149 107.782C113.525 109.53 109.653 113.777 111.402 113.902C113.15 114.027 116.397 110.405 116.397 110.405" fill="white"/>
<path d="M116.522 107.532C116.522 107.532 114.774 106.033 114.149 107.782C113.525 109.53 109.653 113.777 111.402 113.902C113.15 114.027 116.397 110.405 116.397 110.405" stroke="#2E353A" stroke-linecap="round" stroke-linejoin="round"/>
<path d="M108.779 114.526C108.779 114.526 108.33 116.631 109.404 117.524C110.159 118.148 110.584 116.399 110.403 115.151C110.222 113.902 109.154 113.527 108.779 114.526Z" fill="white" stroke="#2E353A" stroke-linecap="round" stroke-linejoin="round"/>
<path d="M110.552 115.026C110.552 115.026 110.103 117.13 111.177 118.023C111.932 118.648 112.357 116.899 112.176 115.65C111.995 114.401 110.902 114.026 110.552 115.026Z" fill="white" stroke="#2E353A" stroke-linecap="round" stroke-linejoin="round"/>
<path d="M112.276 115.775C112.276 115.775 111.826 117.879 112.9 118.772C113.656 119.397 114.081 117.648 113.899 116.399C113.718 115.15 112.651 114.776 112.276 115.775Z" fill="white" stroke="#2E353A" stroke-linecap="round" stroke-linejoin="round"/>
<path d="M114.005 116.793C114.005 116.793 113.593 118.21 114.58 118.81C115.273 119.234 115.666 118.054 115.498 117.211C115.329 116.368 114.349 116.118 114.005 116.793Z" fill="white" stroke="#2E353A" stroke-linecap="round" stroke-linejoin="round"/>
<path d="M120.893 109.406L121.267 117.399L124.015 116.649L123.39 109.281L120.893 109.406Z" fill="#00B533" stroke="#2E353A" stroke-linecap="round" stroke-linejoin="round"/>
<path d="M122.766 108.656L124.015 118.148L144.87 115.9L145.37 103.536L122.766 108.656Z" fill="#00B533" stroke="#2E353A" stroke-linecap="round" stroke-linejoin="round"/>
<path d="M63.9086 230.876C64.9014 231.675 87.1929 231.675 89.1848 230.482C91.1767 229.29 90.1776 227.691 89.3846 227.691C88.5916 227.691 78.6385 221.122 78.6385 221.122C78.6385 221.122 73.2623 225.306 70.2776 226.299C67.2929 227.292 62.5161 227.491 62.5161 227.491V228.69C62.7721 229.533 63.2529 230.289 63.9086 230.876Z" fill="white" stroke="#2E353A" stroke-linecap="round" stroke-linejoin="round"/>
<path d="M89.1848 230.495C90.2338 229.871 90.4336 229.121 90.3087 228.565C87.3802 229.146 84.408 229.458 81.4233 229.496C75.4102 229.658 65.9504 229.29 62.6909 229.152C62.9594 229.821 63.3903 230.42 63.9397 230.888C64.9013 231.688 87.1929 231.688 89.1848 230.495Z" fill="white" stroke="#2E353A" stroke-linecap="round" stroke-linejoin="round"/>
<path d="M61.9355 228.859L62.5162 227.504L63.3092 211.187C63.3092 211.187 59.7251 223.926 59.5315 226.91C59.3817 229.084 61.0301 229.04 61.9355 228.859Z" fill="#2E353A" stroke="#2E353A" stroke-linecap="round" stroke-linejoin="round"/>
<path d="M147.899 141.515C147.899 141.515 145.913 171.177 147.899 183.117C149.884 195.057 154.886 215.764 155.66 218.349C156.147 219.892 156.359 221.509 156.284 223.126L167.43 224.719C167.43 224.719 164.046 185.509 164.046 180.931C164.046 176.354 167.83 142.115 167.83 142.115L147.899 141.515Z" fill="#00B533" stroke="#2E353A" stroke-linecap="round" stroke-linejoin="round"/>
<path d="M156.259 223.126C156.259 223.126 144.121 228.303 142.722 229.296C141.323 230.289 145.713 231.688 151.083 231.688C156.453 231.688 161.835 231.063 161.835 231.063L164.021 229.871L164.221 231.263H169.99C169.99 231.263 170.989 226.486 170.615 225.293C170.334 224.475 169.997 223.676 169.622 222.902L156.259 223.126Z" fill="#2E353A" stroke="#2E353A" stroke-linecap="round" stroke-linejoin="round"/>
<path d="M146.106 139.13C146.106 139.13 147.106 167.593 149.491 177.747C151.876 187.9 156.06 212.579 156.06 215.164C156.072 216.644 155.872 218.118 155.466 219.536L154.667 222.133C154.805 222.752 155.011 223.357 155.292 223.926C155.292 223.926 160.462 225.118 163.846 225.118C165.963 225.1 168.061 224.781 170.09 224.175C170.09 224.175 170.196 217.931 170.396 214.965C170.596 211.998 169.603 192.871 169.603 188.294C169.603 183.717 168.404 181.125 168.404 175.555C168.404 169.985 167.411 155.054 167.611 152.662C167.811 150.27 170.596 147.666 171.195 144.7C171.795 141.734 172.388 138.531 172.388 138.531L146.106 139.13Z" fill="#00B533" stroke="#2E353A" stroke-linecap="round" stroke-linejoin="round"/>
<path d="M141.33 116.637C141.33 116.637 140.587 124.249 140.587 130.069C140.587 133.316 140.556 137.562 140.525 140.635C140.506 143.245 142.342 145.499 144.895 146.011C146.2 146.299 147.537 146.461 148.873 146.492L144.196 117.53C144.196 117.53 142.079 113.952 141.33 116.637Z" fill="#00B533" stroke="#2E353A" stroke-linecap="round" stroke-linejoin="round"/>
<path d="M163.428 64.769C164.57 65.3685 165.607 66.1428 166.512 67.0608C167.312 68.1099 168.017 69.2214 168.623 70.3892C168.623 70.3892 177.084 80.1433 177.283 81.1362C177.483 82.1291 172.507 113.483 172.507 113.483L178.176 143.139C178.176 143.139 169.022 148.216 162.054 148.516C157.152 148.728 149.778 147.16 145.819 146.211C144.202 145.83 143.016 144.457 142.866 142.802C142.479 138.63 141.754 130.313 141.33 122.438C140.843 113.29 142.229 95.1678 143.203 88.7983C144.177 82.4288 147.287 73.7738 149.672 70.1894C152.057 66.6049 158.632 62.8956 163.428 64.769Z" fill="#00B533" stroke="#2E353A" stroke-linecap="round" stroke-linejoin="round"/>
<path d="M168.623 70.3891C168.024 69.2401 167.324 68.1411 166.537 67.1044C165.632 66.1865 164.596 65.4122 163.453 64.8127C159.482 63.2453 154.286 65.5183 151.271 68.3908C150.871 69.2776 147.724 76.4589 146.232 82.3288C144.639 88.5734 144.839 96.4666 144.839 96.4666C144.839 96.4666 150.115 89.6975 157.277 81.7356C160.855 77.7578 164.758 74.0859 168.954 70.7638L168.623 70.3891Z" fill="#00B533" stroke="#2E353A" stroke-linecap="round" stroke-linejoin="round"/>
<path d="M168.623 70.3891C168.024 69.2401 167.324 68.1411 166.537 67.1044C165.632 66.1865 164.596 65.4122 163.453 64.8127C159.482 63.2453 154.286 65.5183 151.271 68.3908C150.871 69.2776 147.724 76.4589 146.232 82.3288C144.639 88.5734 144.839 96.4666 144.839 96.4666C144.839 96.4666 150.115 89.6975 157.277 81.7356C160.855 77.7578 164.758 74.0859 168.954 70.7638L168.623 70.3891Z" stroke="#2E353A" stroke-linecap="round" stroke-linejoin="round"/>
<path d="M150.59 72.9682C150.59 72.9682 147.899 81.4047 147.081 83.7901C146.263 86.1756 146.182 89.9161 146.182 89.9161C146.182 89.9161 156.26 74.8353 158.72 72.3C161.18 69.7647 164.396 65.8056 164.396 65.8056L162.229 65.1812L150.59 72.9682Z" fill="white" stroke="#2E353A" stroke-linecap="round" stroke-linejoin="round"/>
<path d="M151.333 69.9082C151.333 69.9082 150.141 73.4177 150.141 73.655C150.141 73.8923 149.841 77.2394 149.841 77.2394L154.093 71.4881L151.333 69.9082Z" fill="white" stroke="#2E353A" stroke-linecap="round" stroke-linejoin="round"/>
<path d="M162.154 62.8958L150.515 72.3751L152.307 77.5956L164.246 65.4311L162.154 62.8958Z" fill="white" stroke="#2E353A" stroke-linecap="round" stroke-linejoin="round"/>
<path d="M160.649 138.081C160.649 138.081 158.994 142.196 158.501 143.545C158.008 144.894 158.257 150.177 158.32 150.732C158.382 151.288 159.363 151.407 159.363 151.407C159.363 151.407 159.669 155.641 160.037 155.778C160.418 155.872 160.811 155.934 161.205 155.959C161.205 155.959 161.879 158.114 162.741 157.926C163.271 157.764 163.652 157.308 163.721 156.758C164.295 156.815 164.857 156.552 165.195 156.084C165.544 155.566 165.838 155.01 166.056 154.429C166.056 154.429 167.53 153.692 167.649 153.137C167.767 152.581 168.142 150.639 168.142 150.639C168.142 150.639 168.573 150.514 168.573 149.227C168.573 147.941 167.592 140.017 167.592 140.017L160.649 138.081Z" fill="white" stroke="#2E353A" stroke-linecap="round" stroke-linejoin="round"/>
<path d="M159.363 151.407L159.544 147.673" stroke="#2E353A" stroke-linecap="round" stroke-linejoin="round"/>
<path d="M161.205 155.947L161.605 150.42" stroke="#2E353A" stroke-linecap="round" stroke-linejoin="round"/>
<path d="M163.721 156.746L164.008 150.764" stroke="#2E353A" stroke-linecap="round" stroke-linejoin="round"/>
<path d="M166.057 154.417L166.413 150.252" stroke="#2E353A" stroke-linecap="round" stroke-linejoin="round"/>
<path d="M172.782 78.4197L177.259 81.1049L175.767 112.059L167.805 141.315L160.244 139.33L162.629 116.225L161.436 92.9384C161.436 92.9384 163.128 87.5118 167.006 84.5269" fill="#00B533"/>
<path d="M172.782 78.4197L177.259 81.1049L175.767 112.059L167.805 141.315L160.244 139.33L162.629 116.225L161.436 92.9384C161.436 92.9384 163.128 87.5118 167.006 84.5269" stroke="#2E353A" stroke-linecap="round" stroke-linejoin="round"/>
<path d="M143.647 43.9308C143.647 43.9308 141.255 50.7249 141.48 51.6991C141.705 52.6733 141.929 54.1595 141.929 54.1595C141.929 54.1595 138.183 58.7867 138.645 59.3113C139.107 59.8358 141.18 60.4291 141.18 60.4291C141.18 60.4291 142.897 67.5979 143.572 68.2661C144.246 68.9342 148.423 67.448 148.423 67.448L152.9 73.1181L162.079 64.3132L160.962 59.686C160.962 59.686 165.813 51.1746 165.738 47.1405C165.663 43.1065 157.384 37.7361 151.483 37.8111C145.582 37.886 140.062 40.0529 141.18 41.6203C141.836 42.5507 142.672 43.3376 143.647 43.9308Z" fill="white"/>
<path d="M143.647 43.9308C143.647 43.9308 141.255 50.7249 141.48 51.6991C141.705 52.6733 141.929 54.1595 141.929 54.1595C141.929 54.1595 138.183 58.7867 138.645 59.3113C139.107 59.8358 141.18 60.4291 141.18 60.4291C141.18 60.4291 142.897 67.5979 143.572 68.2661C144.246 68.9342 148.423 67.448 148.423 67.448L152.9 73.1181L162.079 64.3132L160.962 59.686C160.962 59.686 165.813 51.1746 165.738 47.1405C165.663 43.1065 157.384 37.7361 151.483 37.8111C145.582 37.886 140.062 40.0529 141.18 41.6203C141.836 42.5507 142.672 43.3376 143.647 43.9308Z" stroke="#2E353A" stroke-linecap="round" stroke-linejoin="round"/>
<path d="M160.961 59.686C160.961 59.686 165.813 51.1746 165.738 47.1405C165.663 43.1065 157.383 37.7361 151.483 37.8111C145.582 37.886 140.062 40.0529 141.18 41.6203C141.835 42.5507 142.678 43.3376 143.646 43.9308C143.646 43.9308 147.305 45.6481 147.305 46.0977C147.305 46.5473 145.139 48.9327 145.888 49.9818C146.637 51.0309 150.215 52.2923 150.215 52.2923C150.215 52.2923 149.591 54.3094 150.515 54.5342C151.439 54.759 151.857 53.8597 152.45 53.2852C153.044 52.7107 155.142 51.8615 155.441 54.403C155.616 56.2265 155.142 58.0499 154.093 59.5548C153.799 59.7734 157.902 62.5398 159.712 61.7155C160.181 61.5032 160.73 61.2221 161.28 60.9286L160.961 59.686Z" fill="#2E353A" stroke="#2E353A" stroke-linecap="round" stroke-linejoin="round"/>
<path d="M143.047 56.0267C143.337 56.0267 143.571 55.1236 143.571 54.0097C143.571 52.8957 143.337 51.9927 143.047 51.9927C142.757 51.9927 142.522 52.8957 142.522 54.0097C142.522 55.1236 142.757 56.0267 143.047 56.0267Z" stroke="#2E353A" stroke-linecap="round" stroke-linejoin="round"/>
<path d="M143.646 53.1917L152.451 53.2666" stroke="#2E353A" stroke-linecap="round" stroke-linejoin="round"/>
<path d="M142.198 50.7624C142.198 50.7624 143.034 49.4261 143.871 51.0934" stroke="#2E353A" stroke-linecap="round" stroke-linejoin="round"/>
<path d="M142.029 61.6468C142.935 61.2784 143.778 60.7726 144.527 60.1418" stroke="#2E353A" stroke-linecap="round" stroke-linejoin="round"/>
</svg>
